<svg id="SvgjsSvg1040" width="288" height="288" xmlns="http://www.w3.org/2000/svg" version="1.1" xmlns:xlink="http://www.w3.org/1999/xlink" xmlns:svgjs="http://svgjs.com/svgjs"><defs id="SvgjsDefs1041"></defs><g id="SvgjsG1042"><svg xmlns="http://www.w3.org/2000/svg" width="288" height="288" fill="none" viewBox="0 0 36 36"><circle cx="18" cy="18" r="18" fill="#4a3732" class="colorfff svgShape"></circle><path fill="#cdbfbb" d="M26.7334 10.5934C25.0994 9.8435 23.3752 9.30828 21.6037 9.00109C21.5877 8.99839 21.5712 9.00073 21.5565 9.00778C21.5419 9.01483 21.5297 9.02625 21.5218 9.04047C21.2997 9.43421 21.0541 9.94923 20.8824 10.3524C18.9729 10.0626 17.0306 10.0626 15.1211 10.3524C14.9296 9.90328 14.7129 9.46526 14.4722 9.04047C14.4641 9.0264 14.452 9.01511 14.4373 9.00809C14.4227 9.00106 14.4063 8.99862 14.3903 9.00109C12.6184 9.30664 10.8938 9.84214 9.26057 10.5934C9.2466 10.5987 9.23491 10.6088 9.2275 10.6218C5.96098 15.5026 5.06482 20.2638 5.50424 24.9651C5.50581 24.9872 5.51999 25.0092 5.53731 25.0234C7.43946 26.4324 9.56705 27.5082 11.8294 28.2049C11.8453 28.2099 11.8625 28.2097 11.8784 28.2043C11.8942 28.199 11.908 28.1887 11.9176 28.1749C12.4027 27.5135 12.8342 26.8157 13.2059 26.0818C13.2137 26.0667 13.2163 26.0495 13.2135 26.0327C13.2106 26.016 13.2025 26.0006 13.1902 25.9889C13.182 25.9812 13.1724 25.9753 13.1618 25.9715C12.4832 25.7108 11.8261 25.3974 11.1962 25.0344C11.1786 25.0245 11.1656 25.0081 11.1597 24.9888C11.1538 24.9694 11.1556 24.9485 11.1647 24.9305C11.1701 24.9188 11.1782 24.9085 11.1884 24.9006C11.3207 24.8013 11.453 24.6974 11.579 24.5934C11.5901 24.5845 11.6034 24.5787 11.6176 24.5768C11.6317 24.5748 11.6461 24.5768 11.6593 24.5824C15.7842 26.4661 20.2492 26.4661 24.3237 24.5824C24.3373 24.5765 24.3523 24.5744 24.367 24.5764C24.3817 24.5783 24.3956 24.5842 24.4072 24.5934C24.5332 24.6974 24.6655 24.8013 24.7978 24.9006C24.8085 24.9084 24.8171 24.9188 24.8229 24.9307C24.8286 24.9427 24.8313 24.9559 24.8306 24.9692C24.83 24.9824 24.8261 24.9953 24.8193 25.0067C24.8124 25.0181 24.8029 25.0276 24.7915 25.0344C24.1631 25.4008 23.5051 25.7137 22.8243 25.97C22.8135 25.9739 22.8036 25.9802 22.7954 25.9883C22.7873 25.9965 22.781 26.0064 22.7771 26.0172C22.7734 26.0277 22.772 26.0389 22.7728 26.05C22.7736 26.0611 22.7767 26.0719 22.7818 26.0818C23.1598 26.8142 23.5929 27.5135 24.0686 28.1749C24.0782 28.1887 24.0919 28.199 24.1078 28.2043C24.1236 28.2097 24.1408 28.2099 24.1568 28.2049C26.4229 27.5103 28.5539 26.4344 30.4583 25.0234C30.4678 25.0168 30.4757 25.0081 30.4815 24.998C30.4872 24.988 30.4906 24.9767 30.4914 24.9651C31.0174 19.5299 29.6109 14.8081 26.7649 10.6233C26.7621 10.6164 26.7578 10.6102 26.7524 10.605C26.7469 10.5999 26.7405 10.5959 26.7334 10.5934V10.5934ZM13.8217 22.1018C12.5791 22.1018 11.5569 20.9615 11.5569 19.5629C11.5569 18.1628 12.5602 17.0225 13.8217 17.0225C15.0927 17.0225 16.1055 18.1722 16.0866 19.5629C16.0866 20.9615 15.0833 22.1018 13.8217 22.1018ZM22.1943 22.1018C20.9533 22.1018 19.9295 20.9615 19.9295 19.5629C19.9295 18.1628 20.9328 17.0225 22.1943 17.0225C23.4654 17.0225 24.4796 18.1722 24.4592 19.5629C24.4592 20.9615 23.4654 22.1018 22.1943 22.1018Z" class="color4A3732 svgShape"></path></svg></g></svg>